<?xml version="1.0" encoding="UTF-8" standalone="no"?>
<svg
   xmlns:dc="http://purl.org/dc/elements/1.1/"
   xmlns:cc="http://creativecommons.org/ns#"
   xmlns:rdf="http://www.w3.org/1999/02/22-rdf-syntax-ns#"
   xmlns:svg="http://www.w3.org/2000/svg"
   xmlns="http://www.w3.org/2000/svg"
   xmlns:sodipodi="http://sodipodi.sourceforge.net/DTD/sodipodi-0.dtd"
   xmlns:inkscape="http://www.inkscape.org/namespaces/inkscape"
   width="64pt"
   height="64pt"
   viewBox="0 0 64 64"
   version="1.1"
   id="svg63"
   sodipodi:docname="abs.svg"
   inkscape:version="0.92.5 (2060ec1f9f, 2020-04-08)">
  <metadata
     id="metadata69">
    <rdf:RDF>
      <cc:Work
         rdf:about="">
        <dc:format>image/svg+xml</dc:format>
        <dc:type
           rdf:resource="http://purl.org/dc/dcmitype/StillImage" />
      </cc:Work>
    </rdf:RDF>
  </metadata>
  <defs
     id="defs67" />
  <sodipodi:namedview
     pagecolor="#ffffff"
     bordercolor="#666666"
     borderopacity="1"
     objecttolerance="10"
     gridtolerance="10"
     guidetolerance="10"
     inkscape:pageopacity="0"
     inkscape:pageshadow="2"
     inkscape:window-width="1848"
     inkscape:window-height="1016"
     id="namedview65"
     showgrid="false"
     inkscape:zoom="9.8203125"
     inkscape:cx="24.439141"
     inkscape:cy="42.666667"
     inkscape:window-x="72"
     inkscape:window-y="27"
     inkscape:window-maximized="1"
     inkscape:current-layer="svg63" />
  <g
     id="surface1"
     style="fill:#6610f2;fill-opacity:1">
    <path
       style="stroke:none;fill-rule:nonzero;fill:#6610f2;fill-opacity:1"
       d="M 48 34 C 49.652344 34 51 32.652344 51 31 C 51 29.347656 49.652344 28 48 28 C 46.347656 28 45 29.347656 45 31 C 45 32.652344 46.347656 34 48 34 Z M 48 30 C 48.550781 30 49 30.449219 49 31 C 49 31.550781 48.550781 32 48 32 C 47.449219 32 47 31.550781 47 31 C 47 30.449219 47.449219 30 48 30 Z M 48 30 "
       id="path58" />
    <path
       style="stroke:none;fill-rule:nonzero;fill:#6610f2;fill-opacity:1"
       d="M 60 1 L 48.734375 1 C 47.25 1 45.972656 2.105469 45.765625 3.574219 L 45.441406 5.835938 C 45.25 7.171875 44.183594 8.21875 42.84375 8.386719 L 33.289062 9.582031 C 30.910156 9.878906 28.617188 10.570312 26.476562 11.644531 C 20.609375 14.578125 16.386719 20.175781 15.179688 26.621094 L 14.285156 31.394531 C 13.867188 31.753906 13.449219 32.117188 13.0625 32.511719 L 12.960938 32.613281 C 11.789062 33.800781 10.746094 35.117188 9.863281 36.53125 L 1 50.714844 L 1 63.449219 L 10.753906 59.734375 C 18.652344 56.726562 24.402344 49.769531 25.914062 41.484375 C 25.996094 41.460938 26.078125 41.445312 26.160156 41.421875 C 29.691406 40.414062 32.726562 38.152344 34.699219 35.050781 L 35.085938 34.441406 C 35.421875 33.914062 35.734375 33.375 36.027344 32.824219 C 36.3125 33.363281 36.636719 33.871094 37 34.355469 L 37 40.394531 C 37 42.6875 37.601562 44.914062 38.75 46.882812 C 37.617188 48.253906 37 49.964844 37 51.816406 C 37 53.234375 37.300781 54.652344 37.890625 55.992188 C 37.296875 57.25 36.828125 58.570312 36.488281 59.925781 L 35.71875 63 L 63 63 L 63 4 C 63 2.347656 61.652344 1 60 1 Z M 40 55 L 39.652344 55 C 39.234375 53.992188 39 52.898438 39 51.753906 C 39 50.289062 39.589844 48.863281 40.652344 47.773438 C 42.105469 46.816406 43.664062 46.0625 45.304688 45.519531 C 45.113281 46.460938 45 47.421875 45 48.402344 L 45 51.167969 C 45 53.003906 45.238281 54.824219 45.6875 56.589844 C 43.996094 55.5625 42.046875 55 40 55 Z M 46.246094 39 L 48.542969 39 C 47.441406 40.261719 46.574219 41.691406 45.976562 43.238281 C 43.988281 43.761719 42.101562 44.570312 40.339844 45.625 C 39.464844 44.023438 39 42.234375 39 40.394531 L 39 36.421875 C 41.011719 38.039062 43.546875 39 46.246094 39 Z M 47 51.167969 L 47 48.558594 C 48.695312 47.539062 50.617188 47 52.605469 47 L 61 47 L 61 53 L 47.09375 53 C 47.039062 52.390625 47 51.78125 47 51.167969 Z M 52.605469 45 C 50.730469 45 48.898438 45.40625 47.21875 46.179688 C 47.726562 43.390625 49.175781 40.863281 51.378906 39 L 53.675781 39 C 56.542969 39 59.183594 37.753906 61 35.699219 L 61 45 Z M 33.398438 33.367188 L 33.011719 33.976562 C 31.300781 36.664062 28.671875 38.625 25.613281 39.5 C 24.449219 39.832031 23.246094 40 22.039062 40 L 18 40 L 18 42 L 22.039062 42 C 22.628906 42 23.21875 41.957031 23.804688 41.886719 C 22.214844 49.148438 17.042969 55.199219 10.042969 57.863281 L 3 60.550781 L 3 51.285156 L 11.5625 37.589844 C 12.363281 36.304688 13.316406 35.101562 14.386719 34.019531 L 14.484375 33.917969 C 18.253906 30.101562 23.292969 28 28.675781 28 L 29.042969 28 C 31.308594 28 33.453125 26.800781 34.640625 24.867188 L 34.851562 24.523438 L 33.148438 23.476562 L 32.9375 23.820312 C 32.109375 25.164062 30.621094 26 29.042969 26 L 28.675781 26 C 24.398438 26 20.203125 27.285156 16.65625 29.597656 L 17.144531 26.988281 C 18.238281 21.15625 22.058594 16.085938 27.367188 13.433594 C 29.308594 12.460938 31.386719 11.835938 33.539062 11.566406 L 43.09375 10.371094 C 45.324219 10.09375 47.105469 8.34375 47.421875 6.117188 L 47.746094 3.859375 C 47.8125 3.367188 48.238281 3 48.734375 3 L 60 3 C 60.550781 3 61 3.449219 61 4 L 61 31.804688 C 59.902344 34.914062 56.984375 37 53.675781 37 L 46.246094 37 C 45.429688 37 44.628906 36.890625 43.859375 36.691406 L 43.664062 34.917969 C 43.226562 30.976562 41.484375 27.261719 38.765625 24.382812 C 38.917969 23.265625 39 22.136719 39 21 L 37 21 C 37 25.390625 35.753906 29.664062 33.398438 33.367188 Z M 38.285156 26.886719 C 40.144531 29.261719 41.339844 32.125 41.675781 35.140625 L 41.757812 35.871094 C 39.613281 34.726562 37.933594 32.78125 37.15625 30.386719 C 37.621094 29.246094 37.996094 28.078125 38.285156 26.886719 Z M 38.429688 60.410156 C 38.722656 59.234375 39.148438 58.097656 39.65625 57 L 40 57 C 42.757812 57 45.320312 58.238281 47.035156 60.390625 C 47.128906 60.59375 47.21875 60.800781 47.320312 61 L 38.28125 61 Z M 49.589844 61 C 48.53125 59.125 47.785156 57.101562 47.375 55 L 61 55 L 61 61 Z M 49.589844 61 "
       id="path60" />
  </g>
</svg>
