<?xml version="1.0" encoding="UTF-8" standalone="no"?>
<svg
   xmlns:dc="http://purl.org/dc/elements/1.1/"
   xmlns:cc="http://creativecommons.org/ns#"
   xmlns:rdf="http://www.w3.org/1999/02/22-rdf-syntax-ns#"
   xmlns:svg="http://www.w3.org/2000/svg"
   xmlns="http://www.w3.org/2000/svg"
   xmlns:sodipodi="http://sodipodi.sourceforge.net/DTD/sodipodi-0.dtd"
   xmlns:inkscape="http://www.inkscape.org/namespaces/inkscape"
   width="64pt"
   height="64pt"
   viewBox="0 0 64 64"
   version="1.1"
   id="svg67"
   sodipodi:docname="abs.svg"
   inkscape:version="0.92.5 (2060ec1f9f, 2020-04-08)">
  <metadata
     id="metadata73">
    <rdf:RDF>
      <cc:Work
         rdf:about="">
        <dc:format>image/svg+xml</dc:format>
        <dc:type
           rdf:resource="http://purl.org/dc/dcmitype/StillImage" />
      </cc:Work>
    </rdf:RDF>
  </metadata>
  <defs
     id="defs71" />
  <sodipodi:namedview
     pagecolor="#ffffff"
     bordercolor="#666666"
     borderopacity="1"
     objecttolerance="10"
     gridtolerance="10"
     guidetolerance="10"
     inkscape:pageopacity="0"
     inkscape:pageshadow="2"
     inkscape:window-width="1848"
     inkscape:window-height="1016"
     id="namedview69"
     showgrid="false"
     inkscape:zoom="9.8203125"
     inkscape:cx="42.972156"
     inkscape:cy="58.566227"
     inkscape:window-x="72"
     inkscape:window-y="27"
     inkscape:window-maximized="1"
     inkscape:current-layer="svg67" />
  <g
     id="surface1"
     style="fill:#6610f2;fill-opacity:1;">
    <path
       style="stroke:none;fill-rule:nonzero;fill:#6610f2;fill-opacity:1"
       d="M 58.746094 58.125 C 58.609375 57.625 58.089844 57.332031 57.59375 57.472656 C 57.09375 57.613281 56.800781 58.128906 56.941406 58.628906 C 57.273438 59.824219 57.515625 61.015625 57.648438 62.125 L 6.351562 62.125 C 6.59375 60.109375 7.304688 56.828125 9.347656 52.863281 C 11.207031 49.246094 13.210938 34.839844 12.410156 30.839844 C 12.199219 29.777344 11.871094 28.660156 11.386719 27.332031 C 11.207031 26.84375 10.667969 26.59375 10.183594 26.773438 C 9.695312 26.953125 9.445312 27.492188 9.625 27.976562 C 10.078125 29.214844 10.378906 30.238281 10.574219 31.207031 C 11.289062 34.78125 9.34375 48.773438 7.679688 52.003906 C 5.101562 57.019531 4.511719 61.046875 4.390625 63.003906 C 4.355469 63.542969 4.785156 64 5.324219 64 L 58.675781 64 C 59.214844 64 59.644531 63.542969 59.609375 63.003906 C 59.515625 61.476562 59.226562 59.832031 58.746094 58.125 Z M 58.746094 58.125 "
       id="path60" />
    <path
       style="stroke:none;fill-rule:nonzero;fill:#6610f2;fill-opacity:1"
       d="M 62.019531 0.402344 C 61.84375 0.148438 61.554688 0 61.25 0 L 2.75 0 C 2.441406 0 2.15625 0.148438 1.980469 0.402344 C 1.804688 0.652344 1.765625 0.976562 1.871094 1.261719 C 1.929688 1.417969 3.179688 4.785156 5.296875 8.445312 C 5.980469 10.914062 6.195312 13.78125 6.367188 16.09375 C 6.589844 19.035156 6.644531 20.367188 8.167969 24.277344 C 8.3125 24.644531 8.667969 24.871094 9.042969 24.871094 C 9.15625 24.871094 9.269531 24.851562 9.382812 24.808594 C 9.863281 24.621094 10.101562 24.078125 9.914062 23.59375 C 8.492188 19.945312 8.449219 18.785156 8.238281 15.953125 C 8.15625 14.863281 8.066406 13.652344 7.921875 12.40625 C 10.140625 15.277344 13.183594 18.027344 16.808594 17.742188 C 22.90625 17.265625 29.464844 17.714844 32 13.933594 C 34.019531 16.960938 38.511719 17.21875 43.238281 17.492188 C 43.753906 17.519531 44.199219 17.125 44.226562 16.609375 C 44.257812 16.09375 43.863281 15.648438 43.34375 15.621094 C 37.71875 15.296875 34.222656 14.898438 33.148438 12.097656 C 32.964844 11.613281 32.515625 11.304688 32 11.304688 C 31.484375 11.304688 31.035156 11.613281 30.851562 12.097656 C 29.457031 15.734375 23.882812 15.304688 16.664062 15.875 C 13.058594 16.15625 9.742188 12.09375 7.59375 8.632812 C 5.984375 6.042969 4.773438 3.386719 4.136719 1.875 L 59.863281 1.875 C 59.226562 3.382812 58.027344 6.023438 56.421875 8.609375 C 54.269531 12.082031 50.945312 16.15625 47.335938 15.875 C 46.820312 15.828125 46.371094 16.21875 46.328125 16.734375 C 46.289062 17.25 46.675781 17.703125 47.191406 17.742188 C 50.804688 18.027344 53.847656 15.296875 56.078125 12.410156 C 55.933594 13.652344 55.84375 14.863281 55.761719 15.953125 C 55.503906 19.394531 55.476562 20.15625 53.539062 24.964844 C 52.78125 26.84375 52 28.785156 51.589844 30.839844 C 50.789062 34.839844 52.792969 49.246094 54.652344 52.863281 C 55.011719 53.5625 55.347656 54.273438 55.648438 54.976562 C 55.800781 55.335938 56.148438 55.546875 56.511719 55.546875 C 56.632812 55.546875 56.757812 55.523438 56.878906 55.472656 C 57.355469 55.265625 57.578125 54.714844 57.371094 54.242188 C 57.054688 53.496094 56.699219 52.742188 56.320312 52.003906 C 54.65625 48.777344 52.710938 34.78125 53.425781 31.207031 C 53.804688 29.324219 54.519531 27.546875 55.277344 25.664062 C 57.308594 20.625 57.363281 19.664062 57.632812 16.09375 C 57.804688 13.785156 58.019531 10.914062 58.703125 8.445312 C 60.820312 4.785156 62.070312 1.417969 62.128906 1.261719 C 62.234375 0.976562 62.195312 0.652344 62.019531 0.402344 Z M 62.019531 0.402344 "
       id="path62" />
    <path
       style="stroke:none;fill-rule:nonzero;fill:#6610f2;fill-opacity:1"
       d="M 32 19.324219 C 31.480469 19.324219 31.0625 19.746094 31.0625 20.261719 L 31.0625 28.050781 C 28.621094 29.007812 23.398438 30.777344 21.027344 30.390625 C 19.96875 30.21875 18.574219 28.640625 17.203125 26.0625 C 16.058594 23.910156 15.308594 21.78125 15.300781 21.757812 C 15.128906 21.269531 14.59375 21.015625 14.105469 21.1875 C 13.617188 21.355469 13.359375 21.890625 13.53125 22.378906 C 13.5625 22.472656 14.332031 24.644531 15.539062 26.921875 C 17.285156 30.21875 18.980469 31.957031 20.726562 32.242188 C 23.449219 32.6875 28.464844 31.027344 31.0625 30.054688 L 31.0625 40.722656 C 28.695312 41.875 24.878906 43.347656 23.234375 43.015625 C 22.640625 42.894531 21.554688 41.710938 20.289062 38.75 C 19.363281 36.589844 18.757812 34.457031 18.75 34.433594 C 18.609375 33.9375 18.089844 33.648438 17.59375 33.789062 C 17.09375 33.929688 16.804688 34.445312 16.945312 34.945312 C 16.972656 35.035156 17.585938 37.199219 18.554688 39.472656 C 20.664062 44.40625 22.316406 44.742188 22.863281 44.855469 C 25.097656 45.308594 28.984375 43.746094 31.0625 42.792969 L 31.0625 53.378906 C 29.050781 54.515625 25.84375 55.957031 24.5 55.640625 C 23.363281 55.375 21.640625 51.882812 20.699219 48.800781 C 20.546875 48.308594 20.023438 48.027344 19.527344 48.179688 C 19.03125 48.332031 18.753906 48.855469 18.90625 49.351562 C 19.613281 51.664062 21.570312 56.878906 24.070312 57.464844 C 26.226562 57.972656 30.066406 56.089844 32 55.003906 C 33.925781 56.089844 37.773438 57.976562 39.929688 57.464844 C 42.417969 56.878906 44.394531 51.644531 45.09375 49.351562 C 45.246094 48.855469 44.96875 48.332031 44.472656 48.179688 C 43.976562 48.027344 43.453125 48.308594 43.300781 48.800781 C 42.359375 51.882812 40.636719 55.375 39.5 55.640625 C 38.15625 55.957031 34.949219 54.515625 32.9375 53.378906 L 32.9375 42.792969 C 35.015625 43.746094 38.902344 45.308594 41.136719 44.855469 C 41.683594 44.742188 43.335938 44.40625 45.445312 39.472656 C 46.414062 37.199219 47.027344 35.035156 47.054688 34.945312 C 47.195312 34.445312 46.90625 33.929688 46.40625 33.785156 C 45.90625 33.644531 45.390625 33.9375 45.25 34.433594 C 45.242188 34.457031 44.640625 36.574219 43.71875 38.734375 C 42.449219 41.707031 41.363281 42.894531 40.765625 43.015625 C 38.890625 43.394531 34.65625 41.546875 32.9375 40.71875 L 32.9375 30.054688 C 35.539062 31.027344 40.550781 32.6875 43.273438 32.242188 C 45.019531 31.957031 46.714844 30.21875 48.460938 26.921875 C 49.667969 24.644531 50.4375 22.472656 50.46875 22.378906 C 50.640625 21.890625 50.382812 21.355469 49.894531 21.183594 C 49.40625 21.015625 48.871094 21.269531 48.699219 21.757812 C 47.511719 25.148438 44.945312 30.070312 42.972656 30.390625 C 40.601562 30.777344 35.378906 29.007812 32.9375 28.050781 L 32.9375 20.261719 C 32.9375 19.746094 32.519531 19.324219 32 19.324219 Z M 32 19.324219 "
       id="path64" />
  </g>
</svg>
