<?xml version="1.0" encoding="UTF-8"?>
<svg xmlns="http://www.w3.org/2000/svg" xmlns:xlink="http://www.w3.org/1999/xlink" width="64pt" height="64pt" viewBox="0 0 64 64" version="1.1">
<g id="surface1">
<path style=" stroke:none;fill-rule:nonzero;fill:rgb(0%,0%,0%);fill-opacity:1;" d="M 61.183594 62.121094 L 2.816406 62.121094 C 1.816406 62.121094 0.917969 61.609375 0.402344 60.753906 C -0.109375 59.898438 -0.136719 58.863281 0.335938 57.984375 L 3.871094 51.367188 C 4.113281 50.914062 4.683594 50.738281 5.140625 50.984375 C 5.59375 51.226562 5.769531 51.796875 5.523438 52.253906 L 1.988281 58.867188 C 1.761719 59.289062 1.929688 59.65625 2.011719 59.792969 C 2.09375 59.929688 2.335938 60.246094 2.816406 60.246094 L 41.144531 60.246094 L 41.144531 56.394531 C 36.867188 55.832031 33.53125 51.46875 33.53125 46.1875 C 33.53125 45.667969 33.949219 45.25 34.46875 45.25 C 37.785156 45.25 40.664062 47.527344 42.082031 50.847656 C 43.503906 47.527344 46.382812 45.25 49.699219 45.25 C 50.21875 45.25 50.636719 45.667969 50.636719 46.1875 C 50.636719 51.46875 47.296875 55.832031 43.019531 56.394531 L 43.019531 60.246094 L 61.183594 60.246094 C 61.664062 60.246094 61.90625 59.929688 61.988281 59.792969 C 62.070312 59.65625 62.238281 59.289062 62.011719 58.867188 L 53.734375 43.375 L 29.839844 43.375 C 29.320312 43.375 28.902344 42.953125 28.902344 42.4375 C 28.902344 41.917969 29.320312 41.5 29.839844 41.5 L 52.730469 41.5 L 47.722656 32.125 L 16.277344 32.125 L 11.269531 41.5 L 25.984375 41.5 C 26.503906 41.5 26.921875 41.917969 26.921875 42.4375 C 26.921875 42.953125 26.503906 43.375 25.984375 43.375 C 24.644531 43.375 23.484375 44.210938 23.003906 45.386719 C 23.453125 45.308594 23.9375 45.25 24.332031 45.25 C 27.464844 45.25 29.652344 47.609375 29.652344 50.992188 C 29.652344 53.964844 27.328125 58.371094 24.117188 58.371094 C 23.378906 58.371094 22.320312 58.125 21.832031 58 C 21.34375 58.125 20.285156 58.371094 19.546875 58.371094 C 16.335938 58.371094 14.011719 53.964844 14.011719 50.992188 C 14.011719 47.609375 16.199219 45.25 19.332031 45.25 C 19.835938 45.25 20.484375 45.347656 21.023438 45.453125 C 21.203125 44.679688 21.558594 43.96875 22.050781 43.375 L 10.269531 43.375 L 7.195312 49.125 C 6.949219 49.582031 6.382812 49.753906 5.925781 49.507812 C 5.46875 49.265625 5.296875 48.699219 5.542969 48.242188 L 29.519531 3.363281 C 30.011719 2.449219 30.960938 1.878906 32 1.878906 C 33.039062 1.878906 33.992188 2.449219 34.480469 3.363281 L 39.339844 12.460938 C 39.582031 12.917969 39.410156 13.484375 38.953125 13.726562 C 38.5 13.972656 37.929688 13.800781 37.6875 13.34375 L 32.828125 4.25 C 32.585938 3.800781 32.167969 3.753906 32 3.753906 C 31.832031 3.753906 31.414062 3.800781 31.171875 4.25 L 23.289062 19 L 25.144531 19 C 25.660156 19 26.082031 19.421875 26.082031 19.9375 C 26.082031 20.457031 25.660156 20.875 25.144531 20.875 L 22.289062 20.875 L 17.28125 30.25 L 36.753906 30.25 L 34.878906 28.375 L 31.515625 28.375 C 28.933594 28.375 26.832031 26.273438 26.832031 23.6875 C 26.832031 21.105469 28.933594 19 31.515625 19 L 40.710938 19 L 39.441406 16.632812 C 39.199219 16.175781 39.371094 15.605469 39.828125 15.363281 C 40.285156 15.117188 40.851562 15.289062 41.097656 15.746094 L 63.664062 57.984375 C 64.136719 58.863281 64.109375 59.898438 63.597656 60.753906 C 63.082031 61.609375 62.183594 62.121094 61.183594 62.121094 Z M 21.832031 56.09375 C 21.914062 56.09375 22 56.105469 22.082031 56.125 C 22.453125 56.230469 23.542969 56.496094 24.117188 56.496094 C 24.9375 56.496094 25.835938 55.839844 26.582031 54.695312 C 27.320312 53.5625 27.777344 52.144531 27.777344 50.992188 C 27.777344 49.207031 26.875 47.125 24.332031 47.125 C 23.683594 47.125 22.472656 47.394531 22.0625 47.5 C 21.910156 47.539062 21.75 47.539062 21.601562 47.5 C 21.1875 47.394531 19.980469 47.125 19.332031 47.125 C 16.789062 47.125 15.886719 49.207031 15.886719 50.992188 C 15.886719 52.144531 16.34375 53.5625 17.082031 54.695312 C 17.824219 55.839844 18.722656 56.496094 19.546875 56.496094 C 20.121094 56.496094 21.207031 56.230469 21.578125 56.125 C 21.660156 56.101562 21.746094 56.09375 21.832031 56.09375 Z M 35.453125 47.214844 C 35.820312 50.953125 38.144531 53.9375 41.097656 54.492188 C 40.730469 50.753906 38.40625 47.765625 35.453125 47.214844 Z M 48.710938 47.214844 C 45.761719 47.765625 43.433594 50.753906 43.070312 54.492188 C 46.019531 53.9375 48.347656 50.953125 48.710938 47.214844 Z M 39.40625 30.25 L 46.71875 30.25 L 41.710938 20.875 L 35.265625 20.875 C 35.855469 21.660156 36.203125 22.632812 36.203125 23.6875 L 36.203125 27.050781 Z M 31.515625 20.875 C 29.964844 20.875 28.703125 22.136719 28.703125 23.6875 C 28.703125 25.238281 29.964844 26.5 31.515625 26.5 L 34.328125 26.5 L 34.328125 23.6875 C 34.328125 22.136719 33.066406 20.875 31.515625 20.875 Z M 28.40625 39.246094 C 27.957031 39.507812 27.386719 39.351562 27.125 38.90625 L 25.25 35.65625 C 24.992188 35.207031 25.144531 34.636719 25.59375 34.375 C 26.042969 34.117188 26.617188 34.269531 26.875 34.71875 L 28.75 37.96875 C 29.007812 38.414062 28.855469 38.988281 28.40625 39.246094 Z M 33.40625 39.246094 C 32.957031 39.507812 32.382812 39.351562 32.125 38.90625 L 30.25 35.65625 C 29.992188 35.207031 30.144531 34.636719 30.59375 34.375 C 31.042969 34.117188 31.617188 34.269531 31.875 34.71875 L 33.75 37.96875 C 34.007812 38.414062 33.855469 38.988281 33.40625 39.246094 Z M 38.40625 39.246094 C 37.957031 39.507812 37.382812 39.351562 37.125 38.90625 L 35.25 35.65625 C 34.992188 35.207031 35.144531 34.636719 35.59375 34.375 C 36.042969 34.117188 36.613281 34.269531 36.875 34.71875 L 38.75 37.96875 C 39.007812 38.414062 38.855469 38.988281 38.40625 39.246094 Z M 32 17.125 C 30.210938 17.125 28.753906 15.671875 28.753906 13.882812 C 28.753906 12.441406 30.636719 9.445312 31.214844 8.5625 C 31.386719 8.296875 31.683594 8.136719 32 8.136719 C 32.316406 8.136719 32.613281 8.296875 32.785156 8.5625 C 33.363281 9.445312 35.246094 12.441406 35.246094 13.882812 C 35.246094 15.671875 33.789062 17.125 32 17.125 Z M 32 10.863281 C 31.25 12.148438 30.628906 13.4375 30.628906 13.882812 C 30.628906 14.636719 31.246094 15.25 32 15.25 C 32.753906 15.25 33.371094 14.636719 33.371094 13.882812 C 33.371094 13.4375 32.75 12.148438 32 10.863281 Z M 32 10.863281 "/>
</g>
</svg>
