<?xml version="1.0" encoding="UTF-8"?>
<svg xmlns="http://www.w3.org/2000/svg" xmlns:xlink="http://www.w3.org/1999/xlink" width="64pt" height="64pt" viewBox="0 0 64 64" version="1.1">
<g id="surface1">
<path style=" stroke:none;fill-rule:evenodd;fill:rgb(0%,0%,0%);fill-opacity:1;" d="M 57.605469 33.796875 C 57.054688 30.585938 55.800781 27.628906 54.414062 24.878906 C 54.410156 24.871094 54.40625 24.863281 54.402344 24.855469 C 53.828125 23.722656 53.234375 22.621094 52.65625 21.554688 C 50.769531 18.074219 48.988281 14.785156 48.851562 11.796875 C 48.535156 4.992188 51.476562 2.304688 51.59375 2.203125 C 52.003906 1.867188 52.148438 1.320312 51.96875 0.820312 C 51.792969 0.324219 51.3125 0 50.785156 0 L 13.316406 0 C 12.789062 0 12.304688 0.320312 12.125 0.816406 C 11.949219 1.316406 12.089844 1.859375 12.5 2.195312 C 12.625 2.304688 15.566406 4.992188 15.25 11.796875 C 15.113281 14.785156 13.332031 18.074219 11.445312 21.554688 C 10.867188 22.621094 10.273438 23.722656 9.699219 24.855469 C 9.695312 24.863281 9.691406 24.871094 9.6875 24.875 C 8.210938 27.804688 6.886719 30.960938 6.398438 34.40625 C 6.394531 34.441406 6.386719 34.476562 6.386719 34.511719 C 6.210938 35.78125 6.148438 37.09375 6.238281 38.445312 C 6.390625 40.753906 6.785156 43.367188 7.410156 46.210938 C 7.558594 46.882812 8.226562 47.308594 8.898438 47.160156 C 9.574219 47.011719 10 46.347656 9.851562 45.671875 C 9.253906 42.953125 8.878906 40.464844 8.734375 38.28125 C 8.707031 37.859375 8.695312 37.441406 8.699219 37.027344 L 26.472656 50.683594 C 27.667969 51.601562 29.183594 52.171875 30.800781 52.324219 L 30.800781 61.5 L 14.859375 61.5 C 14.402344 60.371094 13.496094 58.066406 12.527344 55.167969 C 12.304688 54.511719 11.597656 54.160156 10.941406 54.378906 C 10.289062 54.601562 9.9375 55.308594 10.15625 55.964844 C 11.578125 60.199219 12.824219 63.121094 12.875 63.242188 C 13.074219 63.703125 13.523438 64 14.023438 64 L 50.078125 64 C 50.578125 64 51.027344 63.703125 51.226562 63.242188 C 51.46875 62.679688 57.148438 49.3125 57.863281 38.445312 C 57.964844 36.859375 57.867188 35.335938 57.617188 33.863281 C 57.613281 33.839844 57.609375 33.816406 57.605469 33.796875 Z M 17.746094 11.910156 C 17.957031 7.378906 16.855469 4.332031 15.816406 2.5 L 48.285156 2.5 C 47.242188 4.332031 46.144531 7.378906 46.355469 11.910156 C 46.519531 15.472656 48.433594 19.007812 50.457031 22.746094 C 50.878906 23.523438 51.304688 24.308594 51.714844 25.097656 C 47.171875 28.429688 39.921875 30.398438 32.050781 30.398438 C 24.179688 30.398438 16.929688 28.429688 12.386719 25.097656 C 12.796875 24.308594 13.222656 23.523438 13.644531 22.746094 C 15.667969 19.007812 17.582031 15.472656 17.746094 11.910156 Z M 8.976562 34.085938 C 9.394531 31.742188 10.238281 29.515625 11.253906 27.359375 C 16.238281 30.847656 23.863281 32.898438 32.050781 32.898438 C 40.238281 32.898438 47.863281 30.847656 52.847656 27.359375 C 53.777344 29.335938 54.566406 31.371094 55.011719 33.503906 L 35.082031 48.816406 C 33.203125 50.261719 29.957031 50.207031 27.996094 48.703125 Z M 55.367188 38.28125 C 54.777344 47.289062 50.449219 58.511719 49.242188 61.5 L 33.300781 61.5 L 33.300781 52.21875 C 34.542969 51.992188 35.679688 51.507812 36.605469 50.796875 L 55.382812 36.371094 C 55.414062 36.996094 55.410156 37.632812 55.367188 38.28125 Z M 55.367188 38.28125 "/>
<path style=" stroke:none;fill-rule:evenodd;fill:rgb(0%,0%,0%);fill-opacity:1;" d="M 32.050781 24.578125 C 32.742188 24.578125 33.300781 24.019531 33.300781 23.328125 L 33.300781 19.523438 C 33.300781 18.832031 32.742188 18.273438 32.050781 18.273438 C 31.359375 18.273438 30.800781 18.832031 30.800781 19.523438 L 30.800781 23.328125 C 30.800781 24.019531 31.359375 24.578125 32.050781 24.578125 Z M 32.050781 24.578125 "/>
<path style=" stroke:none;fill-rule:evenodd;fill:rgb(0%,0%,0%);fill-opacity:1;" d="M 7.617188 13.792969 C 7.128906 14.28125 7.128906 15.074219 7.617188 15.5625 C 7.859375 15.804688 8.179688 15.925781 8.5 15.925781 C 8.820312 15.925781 9.140625 15.804688 9.382812 15.5625 C 9.382812 15.5625 13 11.945312 13.007812 11.9375 C 13.289062 11.65625 13.429688 11.238281 13.359375 10.84375 C 13.3125 10.585938 13.195312 10.355469 13.007812 10.167969 L 9.382812 6.546875 C 8.898438 6.058594 8.105469 6.058594 7.617188 6.546875 C 7.128906 7.035156 7.128906 7.824219 7.617188 8.3125 L 9.105469 9.804688 L 1.875 9.804688 C 1.183594 9.804688 0.625 10.363281 0.625 11.054688 C 0.625 11.742188 1.183594 12.304688 1.875 12.304688 L 9.105469 12.304688 Z M 7.617188 13.792969 "/>
<path style=" stroke:none;fill-rule:evenodd;fill:rgb(0%,0%,0%);fill-opacity:1;" d="M 62.226562 9.804688 L 54.996094 9.804688 L 56.484375 8.3125 C 56.972656 7.824219 56.972656 7.035156 56.484375 6.546875 C 55.996094 6.058594 55.207031 6.058594 54.71875 6.546875 C 54.71875 6.546875 51.09375 10.167969 51.09375 10.167969 C 50.761719 10.5 50.621094 11.046875 50.796875 11.488281 C 50.867188 11.65625 50.964844 11.808594 51.09375 11.9375 L 54.71875 15.5625 C 54.960938 15.804688 55.28125 15.925781 55.601562 15.925781 C 55.921875 15.925781 56.242188 15.804688 56.484375 15.5625 C 56.972656 15.074219 56.972656 14.28125 56.484375 13.792969 L 54.996094 12.304688 L 62.226562 12.304688 C 62.917969 12.304688 63.476562 11.742188 63.476562 11.054688 C 63.476562 10.363281 62.917969 9.804688 62.226562 9.804688 Z M 62.226562 9.804688 "/>
<path style=" stroke:none;fill-rule:evenodd;fill:rgb(0%,0%,0%);fill-opacity:1;" d="M 11.109375 50.789062 C 11.109375 50.101562 10.546875 49.539062 9.859375 49.539062 C 9.167969 49.539062 8.609375 50.101562 8.609375 50.789062 C 8.609375 51.476562 9.167969 52.039062 9.859375 52.039062 C 10.546875 52.039062 11.109375 51.476562 11.109375 50.789062 Z M 11.109375 50.789062 "/>
</g>
</svg>
