<?xml version="1.0" encoding="UTF-8" standalone="no"?>
<svg
   xmlns:dc="http://purl.org/dc/elements/1.1/"
   xmlns:cc="http://creativecommons.org/ns#"
   xmlns:rdf="http://www.w3.org/1999/02/22-rdf-syntax-ns#"
   xmlns:svg="http://www.w3.org/2000/svg"
   xmlns="http://www.w3.org/2000/svg"
   xmlns:sodipodi="http://sodipodi.sourceforge.net/DTD/sodipodi-0.dtd"
   xmlns:inkscape="http://www.inkscape.org/namespaces/inkscape"
   width="64pt"
   height="64pt"
   viewBox="0 0 64 64"
   version="1.1"
   id="svg2249"
   sodipodi:docname="harvest.svg"
   inkscape:version="0.92.5 (2060ec1f9f, 2020-04-08)">
  <metadata
     id="metadata2255">
    <rdf:RDF>
      <cc:Work
         rdf:about="">
        <dc:format>image/svg+xml</dc:format>
        <dc:type
           rdf:resource="http://purl.org/dc/dcmitype/StillImage" />
      </cc:Work>
    </rdf:RDF>
  </metadata>
  <defs
     id="defs2253" />
  <sodipodi:namedview
     pagecolor="#ffffff"
     bordercolor="#666666"
     borderopacity="1"
     objecttolerance="10"
     gridtolerance="10"
     guidetolerance="10"
     inkscape:pageopacity="0"
     inkscape:pageshadow="2"
     inkscape:window-width="775"
     inkscape:window-height="480"
     id="namedview2251"
     showgrid="false"
     inkscape:zoom="2.765625"
     inkscape:cx="2.3502825"
     inkscape:cy="42.666667"
     inkscape:window-x="72"
     inkscape:window-y="27"
     inkscape:window-maximized="0"
     inkscape:current-layer="svg2249" />
  <g
     id="surface1"
     style="fill:#6610f2;fill-opacity:1">
    <path
       style="stroke:none;fill-rule:nonzero;fill:#6610f2;fill-opacity:1"
       d="M 53 37 L 55 37 L 55 39 L 53 39 Z M 53 37 "
       id="path2232" />
    <path
       style="stroke:none;fill-rule:nonzero;fill:#6610f2;fill-opacity:1"
       d="M 53 45 L 55 45 L 55 47 L 53 47 Z M 53 45 "
       id="path2234" />
    <path
       style="stroke:none;fill-rule:nonzero;fill:#6610f2;fill-opacity:1"
       d="M 53 53 L 55 53 L 55 55 L 53 55 Z M 53 53 "
       id="path2236" />
    <path
       style="stroke:none;fill-rule:nonzero;fill:#6610f2;fill-opacity:1"
       d="M 61 29 L 56.515625 29 C 56.007812 26.664062 54.910156 24.503906 53.308594 22.703125 C 52.582031 21.886719 51.730469 21.226562 50.824219 20.753906 C 52.644531 19.488281 53.84375 17.382812 53.84375 15 L 53.84375 14 L 48.84375 14 C 46.296875 14 44.070312 15.371094 42.84375 17.414062 L 42.84375 15 C 42.84375 12.792969 44.636719 11 46.84375 11 L 46.84375 9 C 43.535156 9 40.84375 11.691406 40.84375 15 L 40.84375 20.550781 C 37.886719 19.476562 34.558594 20.277344 32.433594 22.644531 C 32.175781 22.929688 31.933594 23.226562 31.703125 23.53125 L 31.789062 23.113281 C 31.929688 22.441406 32 21.757812 32 21 C 32 18.191406 30.832031 15.652344 28.960938 13.835938 L 32.46875 8.675781 C 32.542969 8.5625 32.609375 8.445312 32.671875 8.320312 C 33.4375 6.796875 32.816406 4.929688 31.289062 4.167969 L 31.039062 4.042969 C 30.300781 3.671875 29.460938 3.613281 28.675781 3.875 C 27.890625 4.136719 27.253906 4.6875 26.875 5.441406 C 26.820312 5.550781 26.773438 5.660156 26.734375 5.769531 L 24.695312 11.378906 C 24.558594 11.339844 24.417969 11.304688 24.277344 11.269531 L 24.984375 4.203125 C 24.996094 4.105469 25 4.003906 25 3.90625 C 25 2.304688 23.695312 1 22.09375 1 L 21.90625 1 C 20.304688 1 19 2.304688 19 3.90625 C 19 4.003906 19.003906 4.105469 19.015625 4.195312 L 19.722656 11.273438 C 19.582031 11.304688 19.441406 11.34375 19.304688 11.382812 L 17.265625 5.773438 C 17.226562 5.660156 17.179688 5.550781 17.117188 5.429688 C 16.746094 4.6875 16.109375 4.136719 15.324219 3.875 C 14.542969 3.613281 13.703125 3.671875 12.964844 4.042969 L 12.714844 4.167969 C 11.1875 4.933594 10.566406 6.796875 11.328125 8.324219 C 11.390625 8.445312 11.460938 8.5625 11.535156 8.675781 L 15.042969 13.839844 C 13.171875 15.667969 12 18.226562 12 21.070312 C 12 21.757812 12.070312 22.441406 12.210938 23.113281 L 13.4375 29 L 12 29 C 10.898438 29 10 29.898438 10 31 L 10 31.078125 C 9.671875 31.03125 9.339844 31 9 31 L 4 31 L 4 32 C 4 34.382812 5.199219 36.488281 7.019531 37.753906 C 6.109375 38.226562 5.261719 38.886719 4.535156 39.703125 C 2.257812 42.265625 1 45.566406 1 49 C 1 52.84375 2.523438 56.425781 5.292969 59.089844 C 7.929688 61.625 11.355469 63 14.992188 63 C 15.179688 63 15.367188 62.996094 15.554688 62.988281 C 19.113281 62.851562 22.351562 61.351562 24.757812 59 L 54 59 C 56.757812 59 59 56.757812 59 54 L 59 35 L 61 35 C 62.101562 35 63 34.101562 63 33 L 63 31 C 63 29.898438 62.101562 29 61 29 Z M 48.84375 16 L 51.742188 16 C 51.277344 18.277344 49.257812 20 46.84375 20 L 43.945312 20 C 44.410156 17.722656 46.429688 16 48.84375 16 Z M 33.917969 23.980469 C 35.546875 22.171875 38.242188 21.574219 40.472656 22.527344 C 40.59375 22.578125 40.71875 22.617188 40.84375 22.660156 L 40.84375 24.796875 C 39.851562 24.425781 38.90625 23.648438 38.550781 23.289062 L 37.136719 24.707031 C 37.371094 24.941406 39.496094 27 41.84375 27 C 44.191406 27 46.316406 24.941406 46.550781 24.707031 L 45.136719 23.289062 C 44.78125 23.644531 43.835938 24.425781 42.84375 24.796875 L 42.84375 22 L 46.84375 22 C 47.183594 22 47.511719 21.96875 47.839844 21.921875 C 49.238281 22.019531 50.722656 22.804688 51.8125 24.03125 C 53.089844 25.464844 53.984375 27.164062 54.460938 29 L 31.230469 29 C 31.707031 27.140625 32.621094 25.421875 33.917969 23.980469 Z M 28.613281 6.453125 C 28.628906 6.414062 28.644531 6.378906 28.671875 6.320312 C 28.804688 6.058594 29.027344 5.863281 29.308594 5.773438 C 29.585938 5.679688 29.882812 5.699219 30.144531 5.832031 L 30.394531 5.957031 C 30.933594 6.226562 31.15625 6.886719 30.886719 7.425781 C 30.863281 7.46875 30.835938 7.515625 30.8125 7.554688 L 27.390625 12.589844 C 27.121094 12.414062 26.84375 12.257812 26.558594 12.109375 Z M 21 3.90625 C 21 3.40625 21.40625 3 21.90625 3 L 22.09375 3 C 22.59375 3 23 3.40625 22.992188 3.996094 L 22.292969 11.015625 C 22.195312 11.011719 22.097656 11 22 11 C 21.902344 11 21.804688 11.011719 21.707031 11.015625 Z M 13.191406 7.554688 C 13.164062 7.515625 13.136719 7.46875 13.117188 7.429688 C 12.84375 6.886719 13.066406 6.226562 13.605469 5.957031 L 13.855469 5.832031 C 14.117188 5.703125 14.414062 5.679688 14.691406 5.773438 C 14.972656 5.863281 15.195312 6.058594 15.335938 6.339844 C 15.355469 6.378906 15.371094 6.414062 15.386719 6.453125 L 17.441406 12.109375 C 17.15625 12.257812 16.882812 12.417969 16.613281 12.589844 Z M 22 13 C 26.410156 13 30 16.589844 30 21.070312 C 30 21.617188 29.941406 22.167969 29.832031 22.703125 L 28.519531 29 L 17.382812 29 C 18.085938 28.386719 18.992188 28 20 28 L 20 26 C 18.109375 26 16.425781 26.878906 15.324219 28.25 L 14.167969 22.703125 C 14.058594 22.167969 14 21.617188 14 21 C 14 16.589844 17.589844 13 22 13 Z M 12 31 L 14.089844 31 C 14.035156 31.324219 14 31.660156 14 32 L 14 33.109375 C 13.425781 32.523438 12.75 32.042969 12 31.6875 Z M 9 33 C 11.414062 33 13.433594 34.722656 13.898438 37 L 11 37 C 8.585938 37 6.566406 35.277344 6.101562 33 Z M 15.476562 60.992188 C 12.160156 61.109375 9.054688 59.929688 6.679688 57.648438 C 4.308594 55.363281 3 52.292969 3 49 C 3 46.058594 4.074219 43.226562 6.027344 41.03125 C 7.121094 39.804688 8.601562 39.019531 10.003906 38.921875 C 10.332031 38.96875 10.660156 39 11 39 L 14 39 L 14 41.796875 C 13.007812 41.425781 12.0625 40.648438 11.707031 40.289062 L 10.292969 41.707031 C 10.527344 41.941406 12.652344 44 15 44 C 17.347656 44 19.472656 41.941406 19.707031 41.707031 L 18.292969 40.289062 C 17.9375 40.644531 16.992188 41.425781 16 41.796875 L 16 39.914062 C 16.480469 39.835938 16.941406 39.710938 17.371094 39.527344 C 19.601562 38.570312 22.296875 39.171875 23.925781 40.980469 C 26.039062 43.332031 27.128906 46.371094 26.988281 49.546875 C 26.714844 55.726562 21.65625 60.753906 15.476562 60.992188 Z M 28.984375 49 C 28.984375 46.898438 28.535156 44.855469 27.652344 43 L 57 43 L 57 49 Z M 54 57 L 26.464844 57 C 27.695312 55.246094 28.535156 53.203125 28.855469 51 L 57 51 L 57 54 C 57 55.652344 55.652344 57 54 57 Z M 61 33 L 57 33 L 57 41 L 26.476562 41 C 26.148438 40.53125 25.800781 40.074219 25.410156 39.644531 C 23.183594 37.167969 19.636719 36.382812 16.585938 37.6875 C 16.402344 37.765625 16.203125 37.816406 16 37.867188 L 16 35 L 55 35 L 55 33 L 16 33 L 16 32 C 16 31.652344 16.058594 31.320312 16.140625 31 L 61 31 Z M 61 33 "
       id="path2238" />
    <path
       style="stroke:none;fill-rule:nonzero;fill:#6610f2;fill-opacity:1"
       d="M 7 49 L 5 49 C 5 54.515625 9.484375 59 15 59 L 15 57 C 10.589844 57 7 53.410156 7 49 Z M 7 49 "
       id="path2240" />
    <path
       style="stroke:none;fill-rule:nonzero;fill:#6610f2;fill-opacity:1"
       d="M 25 17 L 27 17 L 27 19 L 25 19 Z M 25 17 "
       id="path2242" />
    <path
       style="stroke:none;fill-rule:nonzero;fill:#6610f2;fill-opacity:1"
       d="M 25 21 L 27 21 L 27 23 L 25 23 Z M 25 21 "
       id="path2244" />
    <path
       style="stroke:none;fill-rule:nonzero;fill:#6610f2;fill-opacity:1"
       d="M 25 25 L 27 25 L 27 27 L 25 27 Z M 25 25 "
       id="path2246" />
  </g>
</svg>
