<?xml version="1.0" encoding="UTF-8"?>
<svg xmlns="http://www.w3.org/2000/svg" xmlns:xlink="http://www.w3.org/1999/xlink" width="64pt" height="64pt" viewBox="0 0 64 64" version="1.1">
<g id="surface1">
<path style=" stroke:none;fill-rule:nonzero;fill:rgb(0%,0%,0%);fill-opacity:1;" d="M 41.164062 36.992188 C 38.007812 36.992188 35.4375 39.558594 35.4375 42.71875 C 35.4375 45.875 38.007812 48.441406 41.164062 48.441406 C 44.320312 48.441406 46.890625 45.875 46.890625 42.71875 C 46.890625 39.558594 44.320312 36.992188 41.164062 36.992188 Z M 41.164062 46.570312 C 39.039062 46.570312 37.3125 44.839844 37.3125 42.71875 C 37.3125 40.59375 39.039062 38.867188 41.164062 38.867188 C 43.285156 38.867188 45.015625 40.59375 45.015625 42.71875 C 45.015625 44.839844 43.285156 46.570312 41.164062 46.570312 Z M 41.164062 46.570312 "/>
<path style=" stroke:none;fill-rule:nonzero;fill:rgb(0%,0%,0%);fill-opacity:1;" d="M 16.007812 42.464844 C 16.007812 45.914062 18.8125 48.71875 22.261719 48.71875 C 25.707031 48.71875 28.511719 45.914062 28.511719 42.464844 C 28.511719 39.019531 25.707031 36.214844 22.261719 36.214844 C 18.8125 36.214844 16.007812 39.019531 16.007812 42.464844 Z M 26.636719 42.464844 C 26.636719 44.878906 24.675781 46.84375 22.261719 46.84375 C 19.847656 46.84375 17.882812 44.878906 17.882812 42.464844 C 17.882812 40.054688 19.847656 38.089844 22.261719 38.089844 C 24.675781 38.089844 26.636719 40.054688 26.636719 42.464844 Z M 26.636719 42.464844 "/>
<path style=" stroke:none;fill-rule:nonzero;fill:rgb(0%,0%,0%);fill-opacity:1;" d="M 33.195312 30.304688 C 33.195312 27.855469 31.199219 25.859375 28.75 25.859375 C 26.300781 25.859375 24.308594 27.855469 24.308594 30.304688 C 24.308594 32.753906 26.300781 34.746094 28.75 34.746094 C 31.199219 34.746094 33.195312 32.753906 33.195312 30.304688 Z M 26.183594 30.304688 C 26.183594 28.886719 27.335938 27.734375 28.75 27.734375 C 30.167969 27.734375 31.320312 28.886719 31.320312 30.304688 C 31.320312 31.71875 30.167969 32.871094 28.75 32.871094 C 27.335938 32.871094 26.183594 31.71875 26.183594 30.304688 Z M 26.183594 30.304688 "/>
<path style=" stroke:none;fill-rule:nonzero;fill:rgb(0%,0%,0%);fill-opacity:1;" d="M 61.722656 32.894531 L 61.710938 31.710938 C 61.644531 23.839844 58.539062 16.4375 52.96875 10.871094 C 47.332031 5.230469 39.832031 2.125 31.855469 2.125 C 28.578125 2.125 25.359375 2.652344 22.289062 3.691406 L 21.335938 4.015625 L 24.003906 10.324219 L 24.820312 10.0625 C 27.078125 9.339844 29.445312 8.96875 31.855469 8.96875 C 44.382812 8.96875 54.707031 19.160156 54.867188 31.6875 L 54.882812 32.894531 L 52.585938 32.894531 L 58.292969 41.015625 L 64 32.894531 Z M 58.292969 37.753906 L 56.195312 34.769531 L 56.78125 34.769531 L 56.742188 31.664062 C 56.570312 18.117188 45.40625 7.09375 31.855469 7.09375 C 29.542969 7.09375 27.261719 7.410156 25.070312 8.03125 L 23.855469 5.160156 C 26.4375 4.390625 29.125 4 31.855469 4 C 39.332031 4 46.359375 6.910156 51.644531 12.195312 C 56.863281 17.414062 59.773438 24.351562 59.839844 31.730469 L 59.867188 34.769531 L 60.390625 34.769531 Z M 58.292969 37.753906 "/>
<path style=" stroke:none;fill-rule:nonzero;fill:rgb(0%,0%,0%);fill-opacity:1;" d="M 39.179688 53.90625 C 36.921875 54.632812 34.554688 55 32.144531 55 C 19.613281 55 9.292969 44.808594 9.132812 32.28125 L 9.117188 31.074219 L 11.410156 31.074219 L 5.707031 22.953125 L 0 31.074219 L 2.277344 31.074219 L 2.285156 32.257812 C 2.355469 40.128906 5.460938 47.53125 11.027344 53.097656 C 16.667969 58.738281 24.167969 61.84375 32.144531 61.84375 C 35.421875 61.84375 38.640625 61.316406 41.710938 60.277344 L 42.664062 59.957031 L 39.996094 53.644531 Z M 32.144531 59.96875 C 24.667969 59.96875 17.640625 57.058594 12.355469 51.773438 C 7.136719 46.554688 4.226562 39.617188 4.160156 32.242188 L 4.132812 29.199219 L 3.609375 29.199219 L 5.707031 26.214844 L 7.804688 29.199219 L 7.21875 29.199219 L 7.257812 32.308594 C 7.429688 45.851562 18.59375 56.875 32.144531 56.875 C 34.457031 56.875 36.738281 56.558594 38.929688 55.9375 L 40.144531 58.808594 C 37.5625 59.578125 34.875 59.96875 32.144531 59.96875 Z M 32.144531 59.96875 "/>
<path style=" stroke:none;fill-rule:nonzero;fill:rgb(0%,0%,0%);fill-opacity:1;" d="M 41.164062 15.527344 C 39.558594 15.527344 38.007812 16 36.683594 16.890625 L 37.730469 18.445312 C 38.746094 17.761719 39.933594 17.402344 41.164062 17.402344 C 44.5625 17.402344 47.324219 20.164062 47.324219 23.5625 C 47.324219 24.792969 46.964844 25.980469 46.28125 26.996094 L 47.835938 28.046875 C 48.726562 26.71875 49.199219 25.167969 49.199219 23.5625 C 49.199219 19.132812 45.59375 15.527344 41.164062 15.527344 Z M 41.164062 15.527344 "/>
<path style=" stroke:none;fill-rule:nonzero;fill:rgb(0%,0%,0%);fill-opacity:1;" d="M 17.628906 26.511719 C 17.003906 25.621094 16.671875 24.578125 16.671875 23.488281 C 16.671875 20.585938 19.035156 18.226562 21.933594 18.226562 C 22.910156 18.226562 23.867188 18.5 24.695312 19.011719 L 25.683594 17.417969 C 24.554688 16.722656 23.261719 16.351562 21.933594 16.351562 C 18 16.351562 14.796875 19.554688 14.796875 23.488281 C 14.796875 24.964844 15.25 26.382812 16.097656 27.589844 Z M 17.628906 26.511719 "/>
<path style=" stroke:none;fill-rule:nonzero;fill:rgb(0%,0%,0%);fill-opacity:1;" d="M 34.929688 47.0625 L 34.539062 45.226562 C 32.828125 45.59375 31.03125 45.601562 29.328125 45.253906 L 28.953125 47.089844 C 29.910156 47.285156 30.890625 47.382812 31.875 47.382812 C 32.898438 47.382812 33.929688 47.273438 34.929688 47.0625 Z M 34.929688 47.0625 "/>
<path style=" stroke:none;fill-rule:nonzero;fill:rgb(0%,0%,0%);fill-opacity:1;" d="M 45.871094 36.757812 C 46.226562 35.488281 46.402344 34.175781 46.402344 32.851562 C 46.402344 24.839844 39.886719 18.324219 31.875 18.324219 C 23.863281 18.324219 17.34375 24.839844 17.34375 32.851562 C 17.34375 33.835938 17.441406 34.820312 17.636719 35.777344 L 19.476562 35.402344 C 19.304688 34.566406 19.21875 33.710938 19.21875 32.851562 C 19.21875 25.875 24.894531 20.199219 31.875 20.199219 C 38.851562 20.199219 44.53125 25.875 44.53125 32.855469 C 44.53125 34.003906 44.375 35.148438 44.066406 36.253906 Z M 45.871094 36.757812 "/>
<path style=" stroke:none;fill-rule:nonzero;fill:rgb(0%,0%,0%);fill-opacity:1;" d="M 41.164062 45.5625 C 40.433594 45.5625 39.707031 45.285156 39.152344 44.730469 L 40.476562 43.402344 C 40.855469 43.78125 41.472656 43.78125 41.851562 43.402344 C 42.230469 43.023438 42.230469 42.410156 41.851562 42.03125 L 43.175781 40.703125 C 44.285156 41.8125 44.285156 43.621094 43.175781 44.730469 C 42.621094 45.285156 41.890625 45.5625 41.164062 45.5625 Z M 41.164062 45.5625 "/>
<path style=" stroke:none;fill-rule:nonzero;fill:rgb(0%,0%,0%);fill-opacity:1;" d="M 43.070312 35.042969 L 41.230469 34.6875 C 41.347656 34.089844 41.40625 33.472656 41.40625 32.851562 C 41.40625 31.558594 41.148438 30.300781 40.640625 29.117188 L 42.363281 28.378906 C 42.972656 29.796875 43.28125 31.300781 43.28125 32.851562 C 43.28125 33.59375 43.210938 34.332031 43.070312 35.042969 Z M 40.132812 28.101562 C 39.847656 27.609375 39.519531 27.140625 39.152344 26.707031 L 40.582031 25.492188 C 41.019531 26.011719 41.414062 26.574219 41.753906 27.160156 Z M 38.367188 25.882812 C 37.949219 25.492188 37.496094 25.140625 37.019531 24.835938 L 38.035156 23.257812 C 38.605469 23.625 39.144531 24.046875 39.644531 24.511719 Z M 38.367188 25.882812 "/>
<path style=" stroke:none;fill-rule:nonzero;fill:rgb(0%,0%,0%);fill-opacity:1;" d="M 44.085938 22.726562 C 43.796875 21.730469 43 20.929688 42 20.644531 L 42.515625 18.839844 C 44.132812 19.304688 45.421875 20.597656 45.886719 22.210938 Z M 44.085938 22.726562 "/>
<path style=" stroke:none;fill-rule:nonzero;fill:rgb(0%,0%,0%);fill-opacity:1;" d="M 57.328125 31.65625 C 57.261719 26.441406 55.609375 21.4375 52.550781 17.183594 L 54.074219 16.089844 C 57.359375 20.65625 59.132812 26.03125 59.203125 31.632812 Z M 51.824219 16.222656 C 51.453125 15.75 51.058594 15.289062 50.652344 14.84375 L 52.035156 13.582031 C 52.46875 14.054688 52.894531 14.554688 53.292969 15.058594 Z M 49.816406 13.976562 C 49.394531 13.550781 48.945312 13.136719 48.492188 12.742188 L 49.722656 11.328125 C 50.207031 11.746094 50.683594 12.191406 51.140625 12.648438 Z M 49.816406 13.976562 "/>
<path style=" stroke:none;fill-rule:nonzero;fill:rgb(0%,0%,0%);fill-opacity:1;" d="M 22.261719 45.769531 C 21.414062 45.769531 20.570312 45.445312 19.925781 44.800781 L 21.25 43.476562 C 21.808594 44.03125 22.714844 44.03125 23.269531 43.476562 C 23.828125 42.921875 23.828125 42.015625 23.269531 41.457031 L 24.597656 40.132812 C 25.882812 41.417969 25.882812 43.515625 24.597656 44.800781 C 23.953125 45.445312 23.105469 45.769531 22.261719 45.769531 Z M 22.261719 45.769531 "/>
</g>
</svg>
