<?xml version="1.0" encoding="UTF-8" standalone="no"?>
<svg
   xmlns:dc="http://purl.org/dc/elements/1.1/"
   xmlns:cc="http://creativecommons.org/ns#"
   xmlns:rdf="http://www.w3.org/1999/02/22-rdf-syntax-ns#"
   xmlns:svg="http://www.w3.org/2000/svg"
   xmlns="http://www.w3.org/2000/svg"
   xmlns:sodipodi="http://sodipodi.sourceforge.net/DTD/sodipodi-0.dtd"
   xmlns:inkscape="http://www.inkscape.org/namespaces/inkscape"
   width="64pt"
   height="64pt"
   viewBox="0 0 64 64"
   version="1.1"
   id="svg884"
   sodipodi:docname="muscle.svg"
   inkscape:version="0.92.5 (2060ec1f9f, 2020-04-08)">
  <metadata
     id="metadata890">
    <rdf:RDF>
      <cc:Work
         rdf:about="">
        <dc:format>image/svg+xml</dc:format>
        <dc:type
           rdf:resource="http://purl.org/dc/dcmitype/StillImage" />
      </cc:Work>
    </rdf:RDF>
  </metadata>
  <defs
     id="defs888" />
  <sodipodi:namedview
     pagecolor="#ffffff"
     bordercolor="#666666"
     borderopacity="1"
     objecttolerance="10"
     gridtolerance="10"
     guidetolerance="10"
     inkscape:pageopacity="0"
     inkscape:pageshadow="2"
     inkscape:window-width="1848"
     inkscape:window-height="1016"
     id="namedview886"
     showgrid="false"
     inkscape:zoom="10.136719"
     inkscape:cx="42.666667"
     inkscape:cy="42.666667"
     inkscape:window-x="72"
     inkscape:window-y="27"
     inkscape:window-maximized="1"
     inkscape:current-layer="svg884" />
  <g
     id="surface1"
     style="fill:#6610f2;fill-opacity:1">
    <path
       style="stroke:none;fill-rule:nonzero;fill:#6610f2;fill-opacity:1"
       d="M 61.273438 61.59375 C 52.332031 62.585938 45.238281 58.625 45.167969 58.585938 C 44.925781 58.449219 44.640625 58.410156 44.375 58.484375 C 44.261719 58.515625 33.007812 61.53125 23.949219 59.519531 C 18.300781 58.265625 12.972656 54.285156 9.082031 51.378906 C 8.558594 50.988281 8.0625 50.621094 7.597656 50.28125 C 6.964844 49.816406 5.953125 49.429688 5.0625 49.089844 C 4.664062 48.933594 4.117188 48.726562 4 48.652344 C 3.898438 48.574219 3.839844 48.457031 3.839844 48.320312 L 3.839844 45.894531 C 3.890625 43.976562 11.9375 14.445312 13.1875 10.691406 C 13.21875 10.644531 13.335938 10.558594 13.425781 10.515625 L 29.347656 3.246094 L 34.496094 9.945312 C 34.75 10.292969 34.726562 10.777344 34.441406 11.097656 L 29.355469 16.800781 C 29.019531 17.175781 28.460938 17.214844 28.113281 16.925781 L 26.054688 15.03125 C 25.816406 14.808594 25.472656 14.734375 25.152344 14.792969 C 24.828125 14.851562 24.539062 15.082031 24.390625 15.371094 C 24.21875 15.710938 22.664062 16.125 21.074219 16.136719 L 20.554688 16.085938 C 20.144531 16.035156 19.738281 16.253906 19.535156 16.617188 C 19.332031 16.984375 19.367188 17.433594 19.621094 17.765625 C 20.0625 18.335938 20.40625 18.796875 20.601562 19.058594 L 21.621094 36.367188 C 20.992188 38.824219 20.410156 39.523438 20.269531 39.664062 C 19.84375 39.796875 19.535156 40.191406 19.535156 40.660156 C 19.535156 41.238281 20.003906 41.707031 20.582031 41.707031 C 21.769531 41.707031 22.777344 40.148438 23.589844 37.105469 C 31.910156 30.875 39.171875 36.753906 39.742188 37.238281 C 42.386719 39.890625 42.550781 41.652344 42.554688 41.730469 C 42.566406 42.296875 43.03125 42.753906 43.601562 42.753906 C 44.179688 42.753906 44.648438 42.285156 44.648438 41.707031 C 44.648438 41.464844 44.5625 39.402344 41.851562 36.417969 C 44.40625 33.277344 47.316406 31.46875 50.519531 31.078125 C 56.039062 30.398438 60.683594 34.109375 60.730469 34.148438 C 61.175781 34.511719 61.835938 34.445312 62.199219 33.996094 C 62.566406 33.550781 62.5 32.890625 62.050781 32.527344 C 61.835938 32.351562 56.699219 28.214844 50.285156 28.996094 C 46.535156 29.453125 43.167969 31.480469 40.265625 35.027344 C 37.914062 33.425781 31.160156 29.804688 23.609375 34.542969 L 22.671875 18.625 C 22.664062 18.453125 22.609375 18.289062 22.519531 18.140625 C 23.457031 18.03125 24.574219 17.785156 25.382812 17.253906 L 26.730469 18.496094 C 27.984375 19.550781 29.824219 19.417969 30.914062 18.195312 L 36.003906 12.492188 C 36.941406 11.441406 37.019531 9.851562 36.171875 8.691406 L 30.5 1.308594 C 30.207031 0.921875 29.683594 0.792969 29.238281 0.996094 L 12.570312 8.609375 C 12.394531 8.683594 11.511719 9.113281 11.21875 9.988281 C 10.628906 11.765625 1.75 43.425781 1.75 45.894531 L 1.75 48.320312 C 1.75 49.101562 2.097656 49.824219 2.707031 50.300781 C 3.015625 50.539062 3.46875 50.71875 4.316406 51.042969 C 5.007812 51.308594 5.953125 51.671875 6.363281 51.96875 C 6.824219 52.304688 7.3125 52.671875 7.828125 53.054688 C 11.871094 56.074219 17.40625 60.210938 23.496094 61.5625 C 32.160156 63.488281 42.335938 61.160156 44.515625 60.609375 C 45.972656 61.363281 51.3125 63.851562 58.308594 63.851562 C 59.339844 63.851562 60.410156 63.796875 61.503906 63.675781 C 62.082031 63.609375 62.492188 63.09375 62.429688 62.519531 C 62.367188 61.945312 61.847656 61.527344 61.273438 61.59375 Z M 61.273438 61.59375 "
       id="path871" />
    <path
       style="stroke:none;fill-rule:nonzero;fill:#6610f2;fill-opacity:1"
       d="M 56.152344 48.917969 C 56.09375 48.394531 55.652344 47.984375 55.113281 47.984375 C 54.535156 47.984375 54.066406 48.453125 54.066406 49.03125 C 54.066406 49.730469 54.582031 52.097656 61.21875 53.203125 C 61.277344 53.210938 61.335938 53.21875 61.390625 53.21875 C 61.894531 53.21875 62.335938 52.855469 62.421875 52.34375 C 62.515625 51.773438 62.132812 51.234375 61.5625 51.140625 C 56.921875 50.363281 56.214844 49.054688 56.152344 48.917969 Z M 56.152344 48.917969 "
       id="path873" />
    <path
       style="stroke:none;fill-rule:nonzero;fill:#6610f2;fill-opacity:1"
       d="M 44.601562 12.585938 L 47.789062 12.585938 L 47.789062 15.550781 C 47.789062 16.128906 48.257812 16.59375 48.835938 16.59375 L 57.203125 16.59375 C 57.78125 16.59375 58.25 16.128906 58.25 15.550781 L 58.25 12.585938 L 61.390625 12.585938 C 61.792969 12.585938 62.15625 12.355469 62.332031 11.996094 C 62.507812 11.632812 62.460938 11.203125 62.210938 10.890625 L 53.816406 0.253906 C 53.417969 -0.25 52.570312 -0.25 52.171875 0.253906 L 43.777344 10.890625 C 43.53125 11.203125 43.484375 11.632812 43.660156 11.996094 C 43.832031 12.355469 44.199219 12.585938 44.601562 12.585938 Z M 52.996094 2.589844 L 59.230469 10.492188 L 57.203125 10.492188 C 56.625 10.492188 56.160156 10.960938 56.160156 11.539062 L 56.160156 14.503906 L 49.878906 14.503906 L 49.878906 11.539062 C 49.878906 10.960938 49.410156 10.492188 48.832031 10.492188 L 46.757812 10.492188 Z M 52.996094 2.589844 "
       id="path875" />
    <path
       style="stroke:none;fill-rule:nonzero;fill:#6610f2;fill-opacity:1"
       d="M 58.25 18.6875 C 58.25 18.109375 57.78125 17.640625 57.203125 17.640625 L 48.832031 17.640625 C 48.257812 17.640625 47.789062 18.109375 47.789062 18.6875 L 47.789062 21.828125 C 47.789062 22.40625 48.257812 22.875 48.832031 22.875 L 57.203125 22.875 C 57.78125 22.875 58.25 22.40625 58.25 21.828125 Z M 56.160156 20.78125 L 49.878906 20.78125 L 49.878906 19.734375 L 56.160156 19.734375 Z M 56.160156 20.78125 "
       id="path877" />
    <path
       style="stroke:none;fill-rule:nonzero;fill:#6610f2;fill-opacity:1"
       d="M 57.203125 23.917969 L 48.835938 23.917969 C 48.257812 23.917969 47.789062 24.386719 47.789062 24.964844 C 47.789062 25.542969 48.257812 26.011719 48.835938 26.011719 L 57.203125 26.011719 C 57.78125 26.011719 58.25 25.542969 58.25 24.964844 C 58.25 24.386719 57.78125 23.917969 57.203125 23.917969 Z M 57.203125 23.917969 "
       id="path879" />
    <path
       style="stroke:none;fill-rule:nonzero;fill:#6610f2;fill-opacity:1"
       d="M 36.058594 54.285156 C 22.355469 57.222656 16.492188 47.84375 16.246094 47.445312 C 15.949219 46.949219 15.304688 46.792969 14.8125 47.089844 C 14.316406 47.386719 14.15625 48.027344 14.453125 48.523438 C 14.523438 48.640625 16.1875 51.371094 19.75 53.699219 C 22.203125 55.304688 25.941406 56.9375 31.003906 56.9375 C 32.6875 56.9375 34.519531 56.757812 36.496094 56.332031 C 37.0625 56.210938 37.421875 55.65625 37.300781 55.089844 C 37.179688 54.527344 36.621094 54.164062 36.058594 54.285156 Z M 36.058594 54.285156 "
       id="path881" />
  </g>
</svg>
