<?xml version="1.0" encoding="UTF-8" standalone="no"?>
<svg
   xmlns:dc="http://purl.org/dc/elements/1.1/"
   xmlns:cc="http://creativecommons.org/ns#"
   xmlns:rdf="http://www.w3.org/1999/02/22-rdf-syntax-ns#"
   xmlns:svg="http://www.w3.org/2000/svg"
   xmlns="http://www.w3.org/2000/svg"
   xmlns:sodipodi="http://sodipodi.sourceforge.net/DTD/sodipodi-0.dtd"
   xmlns:inkscape="http://www.inkscape.org/namespaces/inkscape"
   width="64pt"
   height="64pt"
   viewBox="0 0 64 64"
   version="1.1"
   id="svg1579"
   sodipodi:docname="weight-loss.svg"
   inkscape:version="0.92.5 (2060ec1f9f, 2020-04-08)">
  <metadata
     id="metadata1585">
    <rdf:RDF>
      <cc:Work
         rdf:about="">
        <dc:format>image/svg+xml</dc:format>
        <dc:type
           rdf:resource="http://purl.org/dc/dcmitype/StillImage" />
      </cc:Work>
    </rdf:RDF>
  </metadata>
  <defs
     id="defs1583" />
  <sodipodi:namedview
     pagecolor="#ffffff"
     bordercolor="#666666"
     borderopacity="1"
     objecttolerance="10"
     gridtolerance="10"
     guidetolerance="10"
     inkscape:pageopacity="0"
     inkscape:pageshadow="2"
     inkscape:window-width="775"
     inkscape:window-height="480"
     id="namedview1581"
     showgrid="false"
     inkscape:zoom="2.765625"
     inkscape:cx="42.666667"
     inkscape:cy="42.666667"
     inkscape:window-x="72"
     inkscape:window-y="27"
     inkscape:window-maximized="0"
     inkscape:current-layer="svg1579" />
  <g
     id="surface1"
     style="fill:#6610f2;fill-opacity:1">
    <path
       style="stroke:none;fill-rule:nonzero;fill:#6610f2;fill-opacity:1"
       d="M 53.632812 55.703125 C 52.960938 55.546875 52.289062 55.960938 52.132812 56.632812 L 50.761719 62.464844 C 50.601562 63.136719 51.019531 63.808594 51.691406 63.964844 C 51.789062 63.988281 51.882812 64 51.980469 64 C 52.546875 64 53.058594 63.613281 53.195312 63.035156 L 54.566406 57.207031 C 54.722656 56.535156 54.304688 55.863281 53.632812 55.703125 Z M 53.632812 55.703125 "
       id="path1566" />
    <path
       style="stroke:none;fill-rule:nonzero;fill:#6610f2;fill-opacity:1"
       d="M 48.558594 12.40625 C 48.558594 9.1875 49.464844 6.046875 51.179688 3.320312 L 52.066406 1.917969 C 52.433594 1.332031 52.257812 0.5625 51.675781 0.191406 C 51.089844 -0.175781 50.320312 0 49.949219 0.585938 L 49.066406 1.988281 C 47.097656 5.113281 46.058594 8.714844 46.058594 12.40625 C 46.058594 16.351562 47.097656 20.191406 49.074219 23.582031 L 14.925781 23.582031 C 16.902344 20.191406 17.941406 16.351562 17.941406 12.40625 C 17.941406 8.714844 16.902344 5.113281 14.933594 1.988281 L 14.050781 0.585938 C 13.679688 0 12.910156 -0.175781 12.324219 0.191406 C 11.742188 0.5625 11.566406 1.332031 11.933594 1.917969 L 12.820312 3.320312 C 14.535156 6.046875 15.441406 9.1875 15.441406 12.40625 C 15.441406 16.234375 14.339844 19.949219 12.253906 23.15625 C 8.644531 28.707031 6.734375 35.140625 6.734375 41.761719 C 6.734375 44.390625 7.039062 47.015625 7.640625 49.574219 L 10.804688 63.035156 C 10.941406 63.613281 11.453125 64 12.019531 64 C 12.117188 64 12.210938 63.988281 12.308594 63.964844 C 12.980469 63.808594 13.398438 63.136719 13.238281 62.464844 L 10.074219 49 C 9.515625 46.632812 9.234375 44.195312 9.234375 41.761719 C 9.234375 39.980469 9.382812 38.214844 9.679688 36.476562 L 27.984375 47.941406 L 27.984375 62.75 C 27.984375 63.441406 28.542969 64 29.234375 64 C 29.925781 64 30.484375 63.441406 30.484375 62.75 L 30.484375 48.5 L 33.515625 48.5 L 33.515625 62.75 C 33.515625 63.441406 34.074219 64 34.765625 64 C 35.457031 64 36.015625 63.441406 36.015625 62.75 L 36.015625 47.941406 L 54.320312 36.476562 C 54.617188 38.214844 54.765625 39.980469 54.765625 41.761719 C 54.765625 43.097656 54.679688 44.449219 54.511719 45.773438 C 54.421875 46.457031 54.90625 47.082031 55.589844 47.171875 C 55.644531 47.179688 55.699219 47.183594 55.75 47.183594 C 56.371094 47.183594 56.910156 46.722656 56.988281 46.089844 C 57.171875 44.660156 57.265625 43.203125 57.265625 41.761719 C 57.265625 35.140625 55.355469 28.707031 51.746094 23.15625 C 49.660156 19.949219 48.558594 16.234375 48.558594 12.40625 Z M 34.40625 46 L 29.59375 46 L 10.230469 33.875 C 10.929688 31.15625 11.992188 28.539062 13.398438 26.082031 L 50.605469 26.082031 C 52.007812 28.539062 53.070312 31.15625 53.769531 33.875 Z M 34.40625 46 "
       id="path1568" />
    <path
       style="stroke:none;fill-rule:nonzero;fill:#6610f2;fill-opacity:1"
       d="M 62.75 10.5625 L 55.832031 10.5625 L 56.488281 9.90625 C 56.976562 9.417969 56.976562 8.625 56.488281 8.136719 C 56 7.648438 55.207031 7.648438 54.71875 8.136719 L 51.929688 10.929688 C 51.441406 11.417969 51.441406 12.207031 51.929688 12.695312 L 54.71875 15.488281 C 54.964844 15.730469 55.285156 15.855469 55.601562 15.855469 C 55.921875 15.855469 56.242188 15.730469 56.488281 15.488281 C 56.976562 15 56.976562 14.207031 56.488281 13.71875 L 55.828125 13.0625 L 62.75 13.0625 C 63.441406 13.0625 64 12.503906 64 11.8125 C 64 11.121094 63.441406 10.5625 62.75 10.5625 Z M 62.75 10.5625 "
       id="path1570" />
    <path
       style="stroke:none;fill-rule:nonzero;fill:#6610f2;fill-opacity:1"
       d="M 7.511719 13.71875 C 7.023438 14.207031 7.023438 15 7.511719 15.488281 C 7.757812 15.730469 8.078125 15.855469 8.398438 15.855469 C 8.714844 15.855469 9.035156 15.730469 9.28125 15.488281 L 12.070312 12.695312 C 12.558594 12.207031 12.558594 11.417969 12.070312 10.929688 L 9.28125 8.136719 C 8.792969 7.648438 8 7.648438 7.511719 8.136719 C 7.023438 8.625 7.023438 9.417969 7.511719 9.90625 L 8.167969 10.5625 L 1.25 10.5625 C 0.558594 10.5625 0 11.121094 0 11.8125 C 0 12.503906 0.558594 13.0625 1.25 13.0625 L 8.167969 13.0625 Z M 7.511719 13.71875 "
       id="path1572" />
    <path
       style="stroke:none;fill-rule:nonzero;fill:#6610f2;fill-opacity:1"
       d="M 32 18.25 C 32.328125 18.25 32.652344 18.117188 32.882812 17.882812 C 33.117188 17.652344 33.25 17.328125 33.25 17 C 33.25 16.671875 33.117188 16.347656 32.882812 16.117188 C 32.652344 15.882812 32.328125 15.75 32 15.75 C 31.671875 15.75 31.347656 15.882812 31.117188 16.117188 C 30.882812 16.347656 30.75 16.671875 30.75 17 C 30.75 17.328125 30.882812 17.652344 31.117188 17.882812 C 31.347656 18.117188 31.671875 18.25 32 18.25 Z M 32 18.25 "
       id="path1574" />
    <path
       style="stroke:none;fill-rule:nonzero;fill:#6610f2;fill-opacity:1"
       d="M 54.636719 50.195312 C 54.304688 50.195312 53.984375 50.328125 53.753906 50.5625 C 53.519531 50.792969 53.386719 51.117188 53.386719 51.445312 C 53.386719 51.773438 53.519531 52.097656 53.753906 52.328125 C 53.984375 52.5625 54.304688 52.695312 54.636719 52.695312 C 54.964844 52.695312 55.289062 52.5625 55.519531 52.328125 C 55.753906 52.097656 55.886719 51.773438 55.886719 51.445312 C 55.886719 51.117188 55.753906 50.792969 55.519531 50.5625 C 55.289062 50.328125 54.964844 50.195312 54.636719 50.195312 Z M 54.636719 50.195312 "
       id="path1576" />
  </g>
</svg>
